<?xml version="1.0" encoding="UTF-8"?>
<!DOCTYPE svg PUBLIC "-//W3C//DTD SVG 1.1//EN" "http://www.w3.org/Graphics/SVG/1.1/DTD/svg11.dtd">
<!-- Creator: CorelDRAW X6 -->
<svg xmlns="http://www.w3.org/2000/svg" xml:space="preserve" width="5.29166in" height="1.88889in" version="1.1" style="shape-rendering:geometricPrecision; text-rendering:geometricPrecision; image-rendering:optimizeQuality; fill-rule:evenodd; clip-rule:evenodd"
viewBox="0 0 5292 1889"
 xmlns:xlink="http://www.w3.org/1999/xlink">
 <defs>
  <style type="text/css">
   <![CDATA[
    .fil0 {fill:#045A99;fill-rule:nonzero}
   ]]>
  </style>
 </defs>
 <g id="Layer_x0020_1">
  <metadata id="CorelCorpID_0Corel-Layer"/>
  <polygon class="fil0" points="794,1023 1211,1023 1211,-7 794,-7 "/>
  <polygon class="fil0" points="2187,673 2289,673 2289,1260 2527,1260 2527,1372 2187,1372 "/>
  <path class="fil0" d="M2574 785c12,7 32,9 48,9 16,0 36,-3 48,-9l0 587 -96 0 0 -587zm48 -142c31,0 64,9 64,50 0,41 -33,50 -64,50 -31,0 -64,-9 -64,-50 0,-41 33,-50 64,-50z"/>
  <path class="fil0" d="M3050 936c-35,-42 -81,-59 -133,-59 -57,0 -99,22 -99,73 0,135 251,34 251,255 0,115 -94,180 -178,180 -70,0 -119,-24 -151,-53l0 -112c36,47 89,71 144,71 47,0 100,-20 100,-75 0,-141 -261,-34 -261,-256 0,-122 86,-187 178,-187 65,0 105,13 151,47l0 118z"/>
  <path class="fil0" d="M3439 894l-176 0 0 299c0,59 11,98 76,98 46,0 77,-24 96,-53l0 93c-19,20 -77,54 -123,54 -113,0 -145,-75 -145,-166l0 -325 -85 0 0 -71c83,-17 136,-91 156,-181l37 0 -5 157 170 0 0 94z"/>
  <path class="fil0" d="M3697 1385c-178,0 -244,-138 -244,-315 0,-174 67,-299 244,-299 177,0 243,124 243,299 0,177 -65,315 -243,315zm0 -508c-111,0 -153,83 -153,193 0,124 41,220 153,220 111,0 152,-96 152,-220 0,-110 -41,-193 -152,-193z"/>
  <polygon class="fil0" points="3928,785 4027,785 4147,1266 4149,1266 4233,785 4356,785 4440,1266 4442,1266 4562,785 4661,785 4503,1372 4381,1372 4295,885 4294,885 4208,1372 4085,1372 "/>
  <path class="fil0" d="M5083 1110l-348 0c0,108 48,187 151,187 83,0 135,-58 165,-126l3 -2 0 119c-21,36 -81,98 -175,98 -169,0 -236,-138 -236,-315 0,-174 84,-299 236,-299 147,0 204,115 204,268l0 70zm-71 -89c0,-98 -47,-150 -137,-150 -82,0 -133,49 -141,150l278 0z"/>
  <polygon class="fil0" points="5135,1372 5231,1372 5231,642 5135,642 "/>
  <polygon class="fil0" points="4661,1816 4716,1816 4716,1453 4661,1453 "/>
  <path class="fil0" d="M4752 1511l49 0 0 62 1 0c22,-48 53,-69 98,-69 67,0 90,50 90,97l0 215 -52 0 0 -188c0,-29 -7,-69 -59,-69 -60,0 -75,62 -75,95l0 162 -52 0 0 -305z"/>
  <path class="fil0" d="M5227 1609c-24,-35 -46,-50 -86,-50 -58,0 -80,43 -80,100 0,65 22,115 80,115 40,0 72,-28 86,-65l0 63c-21,36 -58,51 -88,51 -92,0 -127,-71 -127,-163 0,-91 36,-155 127,-155 31,0 62,10 88,37l0 68z"/>
  <path class="fil0" d="M5232 1794c0,-20 10,-29 33,-29 23,0 33,9 33,29 0,20 -10,29 -33,29 -23,0 -33,-9 -33,-29z"/>
  <polygon class="fil0" points="2260,1510 2187,1510 2187,1452 2389,1452 2389,1510 2315,1510 2315,1815 2260,1815 "/>
  <path class="fil0" d="M2590 1679l-188 0c0,56 26,97 82,97 45,0 73,-30 89,-66l2 -1 0 62c-11,19 -44,51 -95,51 -92,0 -127,-71 -127,-163 0,-91 46,-155 127,-155 79,0 110,60 110,139l0 36zm-38 -46c0,-51 -26,-78 -74,-78 -44,0 -72,25 -76,78l150 0z"/>
  <path class="fil0" d="M2817 1608c-24,-35 -46,-50 -86,-50 -58,0 -80,43 -80,100 0,65 22,115 80,115 40,0 72,-28 86,-65l0 63c-21,36 -58,51 -88,51 -92,0 -127,-71 -127,-163 0,-91 36,-155 127,-155 31,0 62,10 88,37l0 68z"/>
  <path class="fil0" d="M2841 1437l52 0 0 132 1 0c20,-45 50,-65 95,-65 67,0 90,50 90,97l0 215 -52 0 0 -188c0,-29 -7,-69 -59,-69 -60,0 -75,62 -75,95l0 162 -52 0 0 -379z"/>
  <path class="fil0" d="M3114 1511l49 0 0 62 1 0c22,-48 53,-69 98,-69 67,0 90,50 90,97l0 215 -52 0 0 -188c0,-29 -7,-69 -59,-69 -60,0 -75,62 -75,95l0 162 -52 0 0 -305z"/>
  <path class="fil0" d="M3506 1822c-96,0 -132,-71 -132,-163 0,-91 36,-155 132,-155 96,0 132,65 132,155 0,92 -35,163 -132,163zm0 -264c-60,0 -83,43 -83,100 0,65 22,115 83,115 60,0 82,-50 82,-115 0,-57 -22,-100 -82,-100z"/>
  <polygon class="fil0" points="3662,1815 3714,1815 3714,1437 3662,1437 "/>
  <path class="fil0" d="M3866 1822c-96,0 -132,-71 -132,-163 0,-91 36,-155 132,-155 96,0 132,65 132,155 0,92 -35,163 -132,163zm0 -264c-60,0 -83,43 -83,100 0,65 22,115 83,115 60,0 82,-50 82,-115 0,-57 -22,-100 -82,-100z"/>
  <path class="fil0" d="M4038 1808c22,24 54,38 97,38 62,0 78,-32 78,-74l0 -41 -1 0c-13,41 -56,59 -90,59 -78,0 -109,-63 -109,-137 0,-77 33,-149 115,-149 39,0 70,14 87,50l1 0 0 -43 49 0 0 260c0,63 -24,118 -131,118 -38,0 -76,-14 -96,-28l0 -53zm102 -252c-54,0 -79,37 -79,98 0,53 23,90 75,90 51,0 76,-44 76,-94 0,-50 -21,-93 -73,-93z"/>
  <polygon class="fil0" points="4375,1800 4274,1511 4328,1511 4402,1742 4403,1742 4472,1511 4526,1511 4403,1889 4348,1889 "/>
  <path class="fil0" d="M4475 1881c13,-32 15,-72 15,-114l43 0c0,41 -12,84 -26,114l-32 0z"/>
  <polygon class="fil0" points="0,1507 417,1507 417,785 0,785 "/>
  <polygon class="fil0" points="1587,1816 2004,1816 2004,785 1587,785 "/>
  <path class="fil0" d="M1988 410l58 -43c-55,-23 -31,-56 -5,-104 -57,11 -87,33 -103,-20l-39 42c-20,23 -35,18 -22,-28l46 -132c-81,44 -88,16 -126,-62 -39,78 -45,106 -126,62l46 132c13,45 -2,51 -22,28l-39 -42c-17,53 -46,31 -103,20 26,48 51,81 -5,104l57 43 -1605 0 0 -417 2188 0 0 417 -200 0z"/>
  <path class="fil0" d="M1209 1399l-1209 0 0 250c0,92 74,167 167,167l1042 0 0 -417z"/>
 </g>
</svg>
